<?xml version="1.0" standalone="no"?>
<!DOCTYPE svg PUBLIC "-//W3C//DTD SVG 20010904//EN"
 "http://www.w3.org/TR/2001/REC-SVG-20010904/DTD/svg10.dtd">
<svg version="1.0" xmlns="http://www.w3.org/2000/svg"
 width="0.712871pt" height="0.534653pt" viewBox="0 0 0.712871 0.534653"
 preserveAspectRatio="xMidYMid meet">
<metadata>
Created by potrace 1.16, written by Peter Selinger 2001-2019
</metadata>
<g transform="translate(0.000000,0.534653) scale(0.000059,-0.000059)"
fill="#000000" stroke="none">
<path d="M7112 7829 c-118 -59 -148 -222 -59 -317 125 -134 352 -45 351 137
-1 153 -155 248 -292 180z"/>
<path d="M7843 7751 c-87 -40 -142 -137 -128 -226 9 -61 60 -134 115 -163 38
-20 55 -23 113 -19 124 8 198 86 199 212 1 54 -3 71 -28 112 -56 90 -175 127
-271 84z"/>
<path d="M6394 7724 c-50 -24 -86 -69 -100 -123 -34 -134 76 -257 212 -236
112 16 188 136 154 240 -14 44 -62 100 -101 121 -37 18 -126 18 -165 -2z"/>
<path d="M8552 7500 c-49 -11 -108 -55 -139 -102 -38 -57 -45 -165 -15 -225
72 -140 245 -176 363 -74 135 115 91 336 -78 397 -42 15 -81 16 -131 4z"/>
<path d="M5722 7429 c-107 -53 -132 -186 -51 -274 66 -71 154 -82 235 -28 41
26 77 108 71 160 -6 59 -46 116 -99 142 -56 27 -102 27 -156 0z"/>
<path d="M9107 7063 c-68 -26 -112 -65 -141 -127 -48 -102 -25 -221 58 -294
51 -44 98 -62 166 -62 255 0 345 337 125 466 -59 34 -142 41 -208 17z"/>
<path d="M5155 6974 c-67 -35 -95 -79 -95 -151 0 -170 240 -222 306 -66 36 84
5 170 -76 211 -52 26 -93 28 -135 6z"/>
<path d="M7127 6970 c-70 -55 -76 -150 -13 -207 30 -28 43 -33 84 -33 96 0
157 77 133 167 -16 60 -50 86 -119 91 -47 3 -62 0 -85 -18z"/>
<path d="M7662 6923 c-73 -36 -102 -129 -62 -200 28 -50 69 -75 125 -75 54 0
109 31 131 75 24 44 15 129 -17 163 -48 52 -117 67 -177 37z"/>
<path d="M6618 6895 c-103 -58 -58 -223 60 -225 104 -1 161 119 94 199 -23 28
-36 34 -77 37 -33 3 -59 -1 -77 -11z"/>
<path d="M8135 6734 c-64 -32 -100 -125 -76 -196 6 -19 27 -50 46 -68 31 -30
43 -35 98 -38 52 -3 67 0 96 20 51 34 73 71 79 126 5 58 -11 95 -63 141 -31
27 -43 31 -93 30 -31 0 -71 -7 -87 -15z"/>
<path d="M6165 6693 c-30 -7 -63 -42 -75 -78 -21 -63 35 -135 104 -135 60 0
106 48 106 112 0 43 -24 76 -66 94 -35 15 -36 15 -69 7z"/>
<path d="M9536 6506 c-72 -31 -119 -74 -153 -143 -22 -45 -25 -63 -21 -125 5
-88 27 -137 85 -193 52 -50 119 -75 198 -75 171 1 301 163 265 331 -37 173
-217 271 -374 205z"/>
<path d="M8555 6435 c-74 -40 -112 -111 -101 -189 25 -165 239 -213 329 -74
50 78 30 193 -43 247 -43 31 -141 40 -185 16z"/>
<path d="M4702 6370 c-39 -24 -72 -75 -72 -113 0 -35 25 -96 49 -118 10 -10
40 -21 65 -24 119 -18 207 103 146 203 -26 42 -76 72 -120 72 -19 0 -50 -9
-68 -20z"/>
<path d="M5724 6342 c-49 -39 -54 -94 -12 -139 32 -34 101 -32 133 3 73 79
-39 203 -121 136z"/>
<path d="M7161 6326 c-57 -32 -67 -103 -20 -147 35 -33 68 -37 110 -12 57 34
59 108 3 152 -30 24 -58 26 -93 7z"/>
<path d="M7530 6289 c-32 -12 -60 -57 -60 -99 0 -69 94 -114 155 -74 59 39 48
141 -19 169 -40 17 -41 17 -76 4z"/>
<path d="M6776 6249 c-30 -36 -32 -60 -9 -99 42 -72 157 -40 157 43 0 83 -95
119 -148 56z"/>
<path d="M7853 6150 c-40 -24 -53 -48 -53 -97 1 -118 173 -142 210 -29 15 46
-7 98 -52 126 -41 25 -64 25 -105 0z"/>
<path d="M6483 6133 c-28 -5 -63 -49 -63 -78 0 -12 9 -34 21 -49 27 -34 88
-37 119 -4 22 24 26 74 7 99 -11 15 -52 41 -59 38 -2 -1 -13 -4 -25 -6z"/>
<path d="M8886 6035 c-193 -68 -155 -356 48 -373 70 -6 114 10 158 56 59 62
74 141 39 217 -42 94 -145 136 -245 100z"/>
<path d="M8135 5942 c-39 -24 -51 -40 -60 -79 -14 -68 32 -139 98 -150 50 -8
80 2 116 38 26 26 31 38 31 80 0 29 -7 60 -16 75 -35 53 -113 70 -169 36z"/>
<path d="M5410 5900 c-43 -43 -11 -120 48 -120 41 0 77 40 67 77 -15 62 -74
84 -115 43z"/>
<path d="M6185 5898 c-52 -28 -61 -84 -19 -117 53 -42 114 -16 114 48 0 56
-51 93 -95 69z"/>
<path d="M9847 5870 c-92 -23 -169 -88 -209 -175 -32 -72 -32 -182 1 -249 36
-72 79 -116 146 -148 83 -39 187 -40 263 -2 156 78 217 252 142 409 -33 69
-67 103 -141 141 -55 28 -144 38 -202 24z"/>
<path d="M7632 5713 c-21 -8 -43 -61 -36 -88 14 -54 84 -73 122 -32 57 60 -8
151 -86 120z"/>
<path d="M8327 5647 c-41 -39 -55 -91 -38 -146 17 -59 51 -84 119 -88 67 -4
97 9 130 57 20 29 23 44 19 89 -3 47 -9 59 -40 88 -33 30 -43 33 -96 33 -54 0
-63 -3 -94 -33z"/>
<path d="M7803 5558 c-30 -34 -34 -55 -19 -92 20 -47 66 -65 112 -43 59 29 67
97 17 137 -35 27 -84 26 -110 -2z"/>
<path d="M9065 5556 c-17 -7 -44 -29 -62 -49 -117 -134 -26 -347 149 -347 108
0 189 67 213 177 15 74 -44 182 -122 222 -29 15 -141 13 -178 -3z"/>
<path d="M7963 5388 c-29 -14 -55 -70 -47 -103 8 -31 58 -75 85 -75 50 0 98
47 99 96 0 43 -47 94 -87 93 -15 0 -38 -5 -50 -11z"/>
<path d="M8482 5340 c-128 -78 -76 -279 75 -282 68 -2 110 24 141 87 23 45 24
53 13 95 -28 103 -141 153 -229 100z"/>
<path d="M3458 5313 c-9 -10 -59 -101 -112 -203 -127 -245 -131 -253 -143
-257 -5 -2 -21 34 -35 79 -82 267 -110 344 -129 361 -17 13 -40 17 -103 17
-138 0 -142 -6 -107 -116 11 -32 58 -180 106 -329 48 -148 102 -317 121 -375
19 -58 34 -111 34 -116 0 -19 36 -44 61 -44 46 0 43 -6 255 408 49 94 92 171
97 169 9 -3 37 -55 191 -352 54 -104 105 -198 114 -207 18 -22 65 -23 85 -3 8
8 28 56 45 107 17 51 69 215 117 363 48 149 100 309 116 356 16 48 29 94 29
102 0 26 -34 37 -119 37 -128 0 -120 8 -186 -197 -82 -256 -82 -257 -91 -260
-5 -2 -38 52 -73 119 -143 275 -174 334 -184 346 -14 18 -71 15 -89 -5z"/>
<path d="M5230 5310 c-30 -11 -79 -37 -110 -58 -30 -20 -58 -38 -62 -40 -5 -2
-17 17 -28 42 -14 33 -26 47 -45 52 -33 8 -104 -1 -118 -15 -16 -16 -12 -1398
4 -1417 15 -18 219 -20 237 -2 9 9 12 77 12 245 0 182 3 235 13 239 7 2 46 -2
86 -11 196 -41 349 1 469 130 251 269 149 726 -187 837 -74 25 -199 23 -271
-2z m212 -257 c84 -56 131 -176 108 -278 -14 -62 -31 -93 -72 -131 -54 -51
-95 -68 -168 -67 -61 0 -150 23 -177 45 -10 8 -13 56 -13 177 0 142 3 170 18
193 64 98 206 127 304 61z"/>
<path d="M6385 5318 c-38 -14 -126 -69 -144 -91 -20 -25 -27 -21 -45 28 -15
38 -22 45 -52 51 -44 8 -105 -1 -116 -18 -13 -22 -10 -902 4 -916 19 -19 222
-16 242 4 14 13 16 57 16 323 0 306 0 308 23 327 63 57 109 66 252 52 29 -3
32 1 74 86 50 102 47 123 -21 150 -45 18 -186 20 -233 4z"/>
<path d="M7056 5309 c-163 -56 -292 -201 -327 -367 -16 -78 -6 -213 20 -283
76 -200 255 -329 456 -329 217 0 425 167 474 381 16 67 13 198 -5 260 -36 120
-113 224 -213 288 -112 72 -281 93 -405 50z m269 -254 c57 -33 100 -90 115
-156 40 -166 -74 -322 -235 -322 -162 -1 -279 164 -234 328 22 80 89 151 167
176 48 15 138 3 187 -26z"/>
<path d="M4390 5303 c-8 -3 -18 -11 -22 -17 -4 -6 -8 -211 -8 -456 0 -334 3
-449 12 -458 15 -15 211 -16 239 -2 18 10 19 26 19 460 l0 449 -22 15 c-17 12
-46 16 -113 15 -49 0 -97 -3 -105 -6z"/>
<path d="M8047 5169 c-22 -13 -47 -61 -47 -92 0 -14 13 -39 29 -56 61 -65 171
-23 171 64 0 52 -44 95 -97 95 -21 0 -46 -5 -56 -11z"/>
<path d="M9930 5165 c-97 -27 -172 -91 -218 -185 -38 -78 -38 -190 0 -272 31
-66 86 -123 160 -163 47 -26 62 -29 138 -28 106 1 174 28 242 98 86 87 115
225 73 345 -27 75 -120 170 -190 193 -73 25 -142 29 -205 12z"/>
<path d="M9145 5068 c-48 -18 -83 -46 -117 -96 -31 -44 -33 -53 -33 -129 0
-74 3 -85 30 -124 49 -70 104 -102 179 -107 81 -5 128 10 182 60 57 52 78 108
72 192 -5 77 -37 132 -106 180 -36 25 -54 31 -110 33 -37 1 -80 -3 -97 -9z"/>
<path d="M8544 4991 c-139 -64 -115 -277 34 -305 115 -21 208 74 188 192 -15
98 -130 156 -222 113z"/>
<path d="M8085 4939 c-53 -31 -72 -104 -40 -153 35 -53 121 -58 166 -10 35 37
34 104 -2 140 -30 29 -93 41 -124 23z"/>
<path d="M8064 4690 c-59 -24 -72 -104 -25 -151 39 -38 80 -39 123 -1 26 24
31 36 30 67 -3 65 -70 110 -128 85z"/>
<path d="M8495 4615 c-47 -24 -79 -78 -79 -136 0 -112 122 -183 218 -127 93
55 101 188 14 251 -35 26 -114 32 -153 12z"/>
<path d="M9110 4521 c-82 -26 -130 -75 -150 -150 -52 -195 187 -335 338 -197
100 90 74 268 -48 331 -37 19 -107 27 -140 16z"/>
<path d="M7974 4460 c-12 -5 -29 -19 -38 -32 -51 -72 33 -165 112 -124 33 17
42 34 42 76 0 42 -9 59 -41 75 -31 17 -44 18 -75 5z"/>
<path d="M9840 4411 c-139 -46 -220 -154 -220 -295 0 -61 5 -83 31 -134 87
-174 317 -219 464 -90 204 179 88 510 -183 524 -37 2 -78 0 -92 -5z"/>
<path d="M8364 4266 c-50 -22 -74 -61 -74 -120 1 -87 47 -136 130 -136 84 1
130 49 130 137 0 63 -32 107 -88 123 -47 13 -60 12 -98 -4z"/>
<path d="M7802 4247 c-51 -54 -15 -137 58 -137 51 0 80 30 80 80 0 72 -89 109
-138 57z"/>
<path d="M7615 4095 c-30 -30 -32 -64 -4 -99 43 -55 129 -23 129 49 0 69 -76
100 -125 50z"/>
<path d="M8860 3999 c-138 -84 -130 -275 15 -340 52 -24 99 -23 153 1 49 22
63 34 91 81 25 41 29 136 7 177 -19 36 -65 78 -99 91 -48 18 -128 13 -167 -10z"/>
<path d="M8140 3962 c-85 -42 -90 -168 -9 -216 57 -34 145 -12 174 44 33 64 5
149 -60 176 -45 18 -62 18 -105 -4z"/>
<path d="M7854 3731 c-51 -22 -73 -122 -36 -167 77 -96 228 -22 194 95 -7 21
-21 46 -32 56 -22 20 -95 29 -126 16z"/>
<path d="M9532 3692 c-24 -9 -63 -37 -87 -61 -131 -130 -103 -339 59 -431 44
-26 61 -30 129 -30 91 0 154 26 205 84 54 62 66 94 67 181 0 93 -25 156 -84
207 -75 66 -195 87 -289 50z"/>
<path d="M8572 3588 c-50 -17 -109 -87 -117 -141 -12 -79 27 -157 97 -193 45
-23 132 -18 178 11 99 63 107 227 13 293 -58 40 -110 49 -171 30z"/>
<path d="M7524 3580 c-54 -21 -72 -105 -34 -153 28 -36 83 -45 125 -22 114 61
29 224 -91 175z"/>
<path d="M6786 3549 c-55 -43 -18 -139 54 -139 72 0 109 96 54 139 -15 12 -39
21 -54 21 -15 0 -39 -9 -54 -21z"/>
<path d="M7175 3531 c-37 -16 -60 -51 -60 -93 0 -33 6 -45 30 -64 35 -28 66
-30 106 -7 60 36 57 127 -5 157 -38 18 -42 18 -71 7z"/>
<path d="M8129 3238 c-99 -57 -106 -203 -13 -274 32 -25 47 -29 99 -29 52 0
67 4 99 29 126 96 60 296 -98 296 -33 0 -64 -8 -87 -22z"/>
<path d="M6152 3180 c-41 -25 -56 -58 -48 -104 14 -74 101 -100 155 -45 52 52
40 128 -24 155 -43 18 -44 18 -83 -6z"/>
<path d="M9107 3092 c-68 -24 -111 -63 -141 -126 -79 -167 40 -356 224 -356
141 0 243 102 244 245 1 119 -62 208 -171 241 -60 18 -97 17 -156 -4z"/>
<path d="M7670 3032 c-56 -25 -90 -79 -90 -143 0 -154 219 -193 282 -51 32 71
5 152 -62 187 -30 15 -103 19 -130 7z"/>
<path d="M6619 2994 c-15 -10 -34 -33 -43 -52 -49 -103 71 -203 170 -143 60
37 68 138 14 186 -28 25 -108 30 -141 9z"/>
<path d="M7138 2945 c-55 -30 -82 -108 -59 -168 34 -89 164 -109 225 -36 73
86 12 220 -100 219 -22 -1 -51 -7 -66 -15z"/>
<path d="M8527 2635 c-55 -19 -101 -62 -136 -125 -22 -41 -17 -158 9 -205 33
-59 50 -75 105 -101 98 -46 205 -25 277 54 88 98 83 238 -14 328 -63 59 -159
79 -241 49z"/>
<path d="M5740 2569 c-35 -14 -87 -75 -95 -110 -24 -107 52 -209 155 -209 107
0 186 97 166 205 -8 43 -75 110 -118 119 -42 8 -78 7 -108 -5z"/>
<path d="M7858 2340 c-73 -22 -134 -101 -145 -187 -6 -55 19 -128 60 -171 115
-123 324 -67 368 99 44 165 -114 310 -283 259z"/>
<path d="M6395 2301 c-45 -21 -76 -58 -95 -115 -37 -115 53 -236 177 -236 61
0 109 25 151 79 28 37 32 50 32 100 0 64 -16 104 -57 143 -54 51 -135 63 -208
29z"/>
<path d="M7110 2218 c-25 -14 -58 -44 -75 -67 -26 -37 -30 -51 -30 -111 0 -60
4 -74 30 -112 44 -61 95 -88 171 -88 53 0 68 5 110 33 58 39 83 78 91 146 8
67 -31 150 -88 188 -58 38 -149 43 -209 11z"/>
</g>
</svg>
