<?xml version="1.0" standalone="no"?>
<!DOCTYPE svg PUBLIC "-//W3C//DTD SVG 20010904//EN"
 "http://www.w3.org/TR/2001/REC-SVG-20010904/DTD/svg10.dtd">
<svg version="1.0" xmlns="http://www.w3.org/2000/svg"
 width="0.712871pt" height="0.712871pt" viewBox="0 0 0.712871 0.712871"
 preserveAspectRatio="xMidYMid meet">
<metadata>
Created by potrace 1.16, written by Peter Selinger 2001-2019
</metadata>
<g transform="translate(0.000000,0.712871) scale(0.000079,-0.000079)"
fill="#000000" stroke="none">
<path d="M4250 8994 c-120 -8 -424 -44 -540 -65 -915 -165 -1735 -593 -2390
-1249 -732 -732 -1165 -1634 -1291 -2695 -32 -261 -31 -703 0 -965 66 -550
186 -974 404 -1435 632 -1334 1873 -2274 3322 -2514 530 -88 1116 -78 1640 29
1023 208 1947 770 2602 1585 541 673 872 1469 969 2335 9 80 18 262 21 405 22
1092 -333 2100 -1044 2965 -111 136 -438 461 -573 571 -821 670 -1770 1019
-2805 1033 -137 2 -279 2 -315 0z m2100 -1963 c175 -47 293 -114 415 -236 100
-101 156 -190 202 -320 27 -77 28 -87 28 -265 -1 -172 -3 -190 -27 -262 -63
-188 -194 -341 -393 -457 -443 -260 -793 -577 -1130 -1026 -487 -650 -801
-1424 -905 -2231 -11 -85 -20 -176 -20 -202 0 -55 -18 -86 -46 -80 -26 5 -37
32 -84 202 -119 433 -170 821 -170 1293 0 483 50 888 166 1343 302 1184 984
2147 1602 2260 76 14 277 4 362 -19z m-3846 -347 c177 -43 390 -230 635 -558
419 -559 664 -1295 660 -1975 -1 -199 -18 -350 -41 -365 -32 -20 -52 7 -95
130 -168 475 -560 1016 -983 1355 -159 128 -289 207 -473 289 -143 64 -225
119 -293 194 -95 105 -144 230 -144 371 0 244 141 456 361 544 100 40 245 46
373 15z m-432 -2358 c389 -99 868 -473 1245 -972 139 -183 266 -404 328 -569
43 -114 14 -148 -68 -81 -149 120 -428 275 -667 369 -326 128 -611 190 -950
207 -262 13 -371 51 -490 170 -101 101 -150 222 -150 370 1 271 196 491 475
534 57 8 184 -4 277 -28z m5251 -9 c360 -134 466 -598 197 -867 -97 -96 -253
-160 -395 -160 -556 -1 -1239 -236 -1728 -596 -35 -26 -39 -27 -55 -11 -16 17
-15 21 7 85 97 280 352 652 656 957 326 327 668 543 965 610 101 23 267 14
353 -18z"/>
</g>
</svg>
