<?xml version="1.0" standalone="no"?>
<!DOCTYPE svg PUBLIC "-//W3C//DTD SVG 20010904//EN"
 "http://www.w3.org/TR/2001/REC-SVG-20010904/DTD/svg10.dtd">
<svg version="1.0" xmlns="http://www.w3.org/2000/svg"
 width="0.712871pt" height="0.712871pt" viewBox="0 0 0.712871 0.712871"
 preserveAspectRatio="xMidYMid meet">
<metadata>
Created by potrace 1.16, written by Peter Selinger 2001-2019
</metadata>
<g transform="translate(0.000000,0.712871) scale(0.000396,-0.000396)"
fill="#000000" stroke="none">
<path d="M886 1758 c-13 -21 -185 -313 -274 -466 -40 -67 -25 -56 -372 -270
-58 -35 -127 -78 -153 -95 l-48 -30 43 -27 c24 -15 144 -89 267 -163 l223
-135 125 -209 c68 -114 140 -236 160 -271 19 -34 38 -62 43 -62 9 0 5 -8 165
265 64 110 129 217 144 239 20 30 82 72 285 195 142 86 259 161 259 166 0 6
-101 71 -224 147 -123 75 -240 147 -259 160 -26 18 -68 81 -164 244 -180 306
-197 334 -201 334 -3 0 -11 -10 -19 -22z m192 -793 c133 -14 224 -24 450 -45
237 -24 231 -22 107 -36 -60 -7 -159 -18 -220 -24 -60 -6 -146 -15 -190 -20
-44 -5 -114 -12 -156 -16 l-76 -6 -11 -87 c-7 -47 -23 -194 -37 -326 -14 -132
-29 -267 -33 -300 l-8 -60 -11 85 c-7 47 -17 135 -23 195 -6 61 -15 146 -20
190 -5 44 -15 128 -21 188 -11 96 -14 108 -33 111 -12 3 -91 12 -176 21 -85 8
-193 20 -240 25 -47 5 -138 15 -202 22 -65 6 -116 13 -115 15 2 1 52 7 113 12
60 6 156 15 214 21 58 6 155 15 215 21 61 6 144 14 185 18 116 12 141 12 288
-4z"/>
</g>
</svg>
